<svg width="90" height="90" viewBox="0 0 90 90" fill="none" xmlns="http://www.w3.org/2000/svg">
<g clip-path="url(#clip0_315_4)">
<path d="M45 0C56.9347 0 68.3807 4.74106 76.8198 13.1802C85.2589 21.6193 90 33.0653 90 45C90 56.9347 85.2589 68.3807 76.8198 76.8198C68.3807 85.2589 56.9347 90 45 90C33.0653 90 21.6193 85.2589 13.1802 76.8198C4.74106 68.3807 0 56.9347 0 45C0 33.0653 4.74106 21.6193 13.1802 13.1802C21.6193 4.74106 33.0653 0 45 0Z" fill="black"/>
<path d="M43.2422 25.4707C30.1641 25.4707 19.9688 33.7148 19.9688 43.9629C19.9688 53.6309 29.3379 59.8008 43.8574 59.502L44.2969 59.4844L45.8965 59.4316L45.4922 60.4863L45.5449 60.5918C45.6607 60.8631 45.7663 61.1387 45.8613 61.418L45.8965 61.5234L45.9492 61.6992L46.0195 61.9453L46.0723 62.1035L46.1426 62.2793L46.1953 62.4727L46.2656 62.7539L46.3535 63.0527L46.4062 63.2461L46.4941 63.5625L46.582 63.8965L46.6523 64.2305L46.7402 64.582L46.8105 64.8281L46.8984 65.2148L46.9863 65.6016L47.1094 66.1289L47.1621 66.4102L47.25 66.832L47.3379 67.2715L47.4434 67.7285L47.5664 68.3789L47.6719 68.9062L47.8125 69.6445L47.8828 70.0137L48.0059 70.5938L48.1113 71.1914L48.252 72L48.4102 72.8438L48.5508 73.7227L48.709 74.6191L48.8672 75.5332L49.0254 76.4824L49.1836 77.4668L49.3066 78.2227L49.5 79.5059L49.5879 80.0332L49.7988 81.3867L49.957 82.4941L50.0977 83.3379L50.2559 84.498L50.3438 85.0781C59.9941 83.7949 68.5723 79.1191 74.8301 72.2812L75.0234 72.0703L74.127 68.7305L71.7539 59.8535L70.2773 54.334L68.9766 49.4824L68.168 46.5293L67.6582 44.666L67.3594 43.541L67.0781 42.5566L66.9727 42.1348L66.9023 41.9062L66.8672 41.7832L66.832 41.6777C65.4609 37.2656 62.8066 33.3633 59.1855 30.5332C54.9316 27.2109 49.5352 25.4707 43.2422 25.4707ZM31.7461 72.3867C30.6035 72.0703 29.4082 72.7383 29.0742 73.8809L29.0566 73.9336L27.0879 81.2461C28.3189 81.8552 29.5803 82.4009 30.8672 82.8809L31.166 83.0039L33.293 75.0762L33.3105 75.0234C33.5918 73.8633 32.9062 72.6855 31.7461 72.3867ZM43.998 67.0254C42.8379 66.709 41.6426 67.377 41.3086 68.5195L41.291 68.5723L38.3027 79.6465V79.6992C38.1869 80.2487 38.2859 80.8217 38.5794 81.3005C38.8728 81.7793 39.3384 82.1275 39.8806 82.2738C40.4228 82.42 41.0004 82.3531 41.4948 82.0868C41.9892 81.8205 42.3629 81.375 42.5391 80.8418L42.5566 80.7891L45.5449 69.7148V69.6621L45.5977 69.416L45.6152 69.3281L45.5449 68.959L45.4395 68.4492L45.3691 68.1328C45.2294 67.8636 45.0355 67.6262 44.7995 67.4356C44.5635 67.245 44.2906 67.1053 43.998 67.0254ZM23.168 55.6172L23.0273 55.9512L23.0098 56.0215L20.0215 67.0957L20.0039 67.1484C19.8707 67.7034 19.9587 68.2883 20.2491 68.7795C20.5396 69.2708 21.0097 69.6297 21.5601 69.7805C22.1105 69.9312 22.698 69.8619 23.1982 69.5872C23.6984 69.3125 24.0721 68.8539 24.2402 68.3086L24.2578 68.2559L26.9648 58.2012C25.5586 57.4629 24.2754 56.584 23.168 55.6172ZM16.0488 42.873C14.8887 42.5742 13.6934 43.2422 13.3594 44.3672L13.3418 44.4199L10.3535 55.4941V55.5469C10.2203 56.1018 10.3083 56.6867 10.5987 57.178C10.8892 57.6692 11.3593 58.0282 11.9097 58.1789C12.4601 58.3296 13.0476 58.2603 13.5478 57.9856C14.048 57.7109 14.4217 57.2524 14.5898 56.707L14.6074 56.6543L17.5957 45.5801V45.5273C17.877 44.3672 17.1914 43.1895 16.0488 42.873ZM83.0391 40.3594C81.8965 40.0605 80.7012 40.7285 80.3672 41.8535L80.3496 41.9062L77.3613 52.9805L77.3438 53.0332C77.1899 53.5973 77.2664 54.1994 77.5565 54.7071C77.8466 55.2148 78.3265 55.5864 78.8906 55.7402C79.4547 55.8941 80.0568 55.8175 80.5645 55.5274C81.0722 55.2373 81.4438 54.7575 81.5977 54.1934V54.1406L84.6035 43.0664V42.9961C84.8848 41.8535 84.1992 40.6758 83.0391 40.3594ZM9.52734 25.5762C7.02335 30.1359 5.42935 35.1388 4.83398 40.3066C5.12235 40.6332 5.50196 40.8659 5.92383 40.9746C7.06641 41.2734 8.26172 40.6055 8.5957 39.4805L8.61328 39.4277L11.6016 28.3535L11.6191 28.3008C11.9004 27.1406 11.2148 25.9629 10.0547 25.6465C9.88234 25.6021 9.7053 25.5785 9.52734 25.5762ZM75.4805 25.6465C74.3203 25.3477 73.1426 26.0156 72.791 27.1406V27.1934L69.8027 38.2676L69.7852 38.3203C69.652 38.8752 69.7399 39.4602 70.0304 39.9514C70.3208 40.4426 70.791 40.8016 71.3414 40.9523C71.8918 41.1031 72.4792 41.0338 72.9794 40.759C73.4796 40.4843 73.8534 40.0258 74.0215 39.4805L74.0391 39.4277L77.0273 28.3535L77.0449 28.3008C77.3262 27.1406 76.623 25.9629 75.4805 25.6465Z" fill="white"/>
<path d="M46.0547 32.8711C46.8006 32.8711 47.516 33.1674 48.0434 33.6949C48.5709 34.2223 48.8672 34.9377 48.8672 35.6836C48.8672 36.4295 48.5709 37.1449 48.0434 37.6723C47.516 38.1998 46.8006 38.4961 46.0547 38.4961C45.3088 38.4961 44.5934 38.1998 44.0659 37.6723C43.5385 37.1449 43.2422 36.4295 43.2422 35.6836C43.2422 34.9377 43.5385 34.2223 44.0659 33.6949C44.5934 33.1674 45.3088 32.8711 46.0547 32.8711Z" fill="black"/>
<path d="M22.535 15.1172C21.3925 14.8184 20.1972 15.4863 19.8632 16.6113L19.8456 16.6641L16.8573 27.7383L16.8397 27.791C16.7066 28.3459 16.7945 28.9309 17.0849 29.4221C17.3754 29.9133 17.8455 30.2723 18.396 30.423C18.9464 30.5738 19.5338 30.5045 20.034 30.2298C20.5342 29.955 20.9079 29.4965 21.0761 28.9512L21.0936 28.8984L24.0819 17.8242L24.0995 17.7539C24.3807 16.6113 23.6952 15.4336 22.535 15.1172ZM60.9433 17.209C59.7831 16.9102 58.5878 17.5781 58.2538 18.7031L58.2362 18.7559L56.2323 26.209C57.5325 26.8483 58.7737 27.6012 59.9413 28.459L60.1347 28.6172L62.4901 19.916V19.8633C62.7714 18.7031 62.0858 17.5254 60.9433 17.209ZM41.3964 4.72852C39.9924 4.85463 38.5959 5.05412 37.2128 5.32617L36.914 5.37891L34.1366 15.6973L34.119 15.75C34.0032 16.2995 34.1022 16.8725 34.3957 17.3513C34.6891 17.83 35.1547 18.1783 35.6969 18.3246C36.2391 18.4708 36.8167 18.4039 37.3111 18.1376C37.8055 17.8713 38.1791 17.4258 38.3554 16.8926L38.3729 16.8398L41.3612 5.76562L41.3788 5.71289C41.4597 5.3904 41.4657 5.05369 41.3964 4.72852ZM68.8886 12.375L68.3085 14.5547L68.2909 14.6074C68.1751 15.1569 68.2741 15.7299 68.5675 16.2087C68.861 16.6875 69.3266 17.0357 69.8688 17.182C70.411 17.3282 70.9886 17.2613 71.483 16.995C71.9773 16.7287 72.351 16.2832 72.5272 15.75L72.5448 15.6973L72.6151 15.4688C71.5155 14.4385 70.3594 13.4702 69.1522 12.5684L68.8886 12.375ZM51.5038 5.09766L50.4491 9.01758L50.4315 9.07031C50.3157 9.6198 50.4147 10.1928 50.7082 10.6716C51.0016 11.1504 51.4672 11.4986 52.0094 11.6449C52.5516 11.7911 53.1292 11.7242 53.6236 11.4579C54.118 11.1916 54.4916 10.7461 54.6679 10.2129L54.6854 10.1602L55.7929 6.0293C54.4843 5.66943 53.1584 5.37609 51.8202 5.15039L51.5038 5.09766Z" fill="white"/>
</g>
<defs>
<clipPath id="clip0_315_4">
<rect width="90" height="90" fill="white"/>
</clipPath>
</defs>
</svg>
