<svg width="90" height="90" viewBox="0 0 90 90" fill="none" xmlns="http://www.w3.org/2000/svg">
<path d="M51.1622 36.7622H58.2187V43.9791H61.7906C63.4592 43.9717 65.1156 43.6943 66.6956 43.1578C67.526 42.8828 68.3253 42.5218 69.0806 42.0806C68.1139 40.7431 67.5402 39.1621 67.424 37.5159C67.1279 35.1137 67.7464 32.6881 69.1565 30.7209L69.899 29.8631L70.7822 30.5747C73.1251 32.2928 74.7124 34.8507 75.2119 37.7128C77.9363 36.8749 80.8816 37.1489 83.4047 38.475L84.375 39.0375L83.8659 40.0331C82.8337 41.7742 81.3072 43.1691 79.4802 44.0405C77.6533 44.9119 75.6086 45.2204 73.6059 44.9269C67.4944 60.1509 54.1997 67.3594 38.0503 67.3594C34.0286 67.5987 30.0169 66.748 26.4385 64.8971C22.86 63.0463 19.8475 60.2639 17.7187 56.8434L17.6484 56.7225L17.0128 55.4316C15.5752 52.1701 15.0139 48.5899 15.3843 45.045L15.4828 43.9762H21.51V36.7622H28.5693V29.7028H42.6881V22.6434H51.1594L51.1622 36.7622Z" fill="#3A4E55"/>
<path d="M74.0362 39.4341C74.0846 37.8841 73.7452 36.3466 73.0488 34.961C72.3523 33.5755 71.3209 32.3858 70.0481 31.5C68.9458 33.1183 68.4259 35.0631 68.5735 37.0155C68.7212 38.968 69.5277 40.8125 70.8609 42.2466C68.24 44.1888 65.0523 45.2138 61.7906 45.1631H16.5459C16.1575 48.7737 16.8083 52.4201 18.4218 55.6734L18.9365 56.6156C19.2621 57.1683 19.618 57.7025 20.0025 58.2159C21.8625 58.3359 23.5771 58.3781 25.1465 58.3425C27.6895 58.3582 30.2203 57.9893 32.6531 57.2484C32.7892 57.2014 32.9384 57.2105 33.0679 57.2735C33.1974 57.3365 33.2966 57.4484 33.3435 57.5845C33.3905 57.7207 33.3815 57.8699 33.3185 57.9994C33.2555 58.1289 33.1436 58.228 33.0075 58.275C32.7543 58.3622 32.49 58.4466 32.2171 58.5225C30.5242 58.9959 28.7838 59.2789 27.0281 59.3662C27.1518 59.3662 26.8987 59.3859 26.8987 59.3859L26.6681 59.4056C25.8496 59.4506 24.9806 59.4619 24.0665 59.4619C23.0793 59.4619 22.0978 59.4422 21.0206 59.3887L20.9925 59.4084C23.1861 61.6901 25.843 63.4756 28.7843 64.6447C31.7256 65.8139 34.8832 66.3396 38.0446 66.1866C53.6821 66.1866 66.9459 59.2538 72.8212 43.6866C76.9893 44.1141 80.9943 43.0509 82.814 39.4959C81.4551 38.8067 79.9547 38.4424 78.431 38.4317C76.9073 38.421 75.4047 38.7641 74.0362 39.4341Z" fill="#00AADA"/>
<path d="M74.0364 39.4341C74.0848 37.8841 73.7454 36.3466 73.049 34.961C72.3525 33.5755 71.3211 32.3858 70.0483 31.5C68.946 33.1183 68.4261 35.0631 68.5737 37.0155C68.7214 38.968 69.5279 40.8125 70.8611 42.2466C68.2402 44.1888 65.0525 45.2138 61.7908 45.1631H19.2264C18.9943 47.6841 19.4177 50.2223 20.4555 52.5314C21.4933 54.8406 23.1103 56.8423 25.1495 58.3425C27.6926 58.3582 30.2233 57.9893 32.6561 57.2484C32.7235 57.2252 32.7948 57.2154 32.866 57.2197C32.9372 57.224 33.0068 57.2423 33.0709 57.2735C33.1351 57.3047 33.1924 57.3482 33.2397 57.4016C33.287 57.455 33.3233 57.5171 33.3466 57.5845C33.3698 57.6519 33.3796 57.7233 33.3753 57.7944C33.371 57.8656 33.3527 57.9353 33.3215 57.9994C33.2903 58.0635 33.2468 58.1208 33.1934 58.1681C33.14 58.2154 33.0779 58.2517 33.0105 58.275C32.7573 58.3622 32.493 58.4466 32.2202 58.5225C30.4819 59.0096 28.6957 59.3057 26.8933 59.4056L26.8398 59.3438C32.1611 62.0747 39.8786 62.0634 48.7267 58.6659C58.8227 54.587 67.6548 47.9008 74.3205 39.2906L74.0392 39.4256" fill="#27B9EC"/>
<path d="M16.6304 49.8712C16.8969 51.8905 17.5026 53.8503 18.4219 55.6678L18.9366 56.61C19.2622 57.1626 19.6181 57.6969 20.0026 58.2103C21.8626 58.3303 23.5772 58.3725 25.1466 58.3369C27.6896 58.3525 30.2204 57.9837 32.6532 57.2428C32.7206 57.2195 32.7919 57.2098 32.8631 57.2141C32.9343 57.2184 33.0039 57.2366 33.068 57.2679C33.1321 57.2991 33.1895 57.3426 33.2368 57.396C33.2841 57.4493 33.3204 57.5115 33.3437 57.5789C33.3669 57.6463 33.3767 57.7176 33.3724 57.7888C33.3681 57.86 33.3498 57.9296 33.3186 57.9937C33.2874 58.0579 33.2439 58.1152 33.1905 58.1625C33.1371 58.2098 33.075 58.2461 33.0076 58.2694C32.7544 58.3566 32.4901 58.4409 32.2172 58.5169C30.481 58.9968 28.6977 59.2863 26.8988 59.3803H26.6176C25.7991 59.4253 24.9301 59.4534 24.0244 59.4534C23.0372 59.4534 22.0304 59.4337 20.9307 59.3803C23.1312 61.6637 25.7942 63.4504 28.7414 64.6209C31.6886 65.7913 34.8519 66.3184 38.0194 66.1669C51.4069 66.1669 63.0507 61.0847 69.8007 49.8544L16.6304 49.8712Z" fill="#088CB9"/>
<path d="M19.6313 49.8712C20.3135 53.297 22.2886 56.3286 25.1467 58.3368C27.6897 58.3525 30.2205 57.9836 32.6532 57.2428C32.7894 57.1958 32.9386 57.2048 33.0681 57.2678C33.1976 57.3309 33.2967 57.4427 33.3437 57.5789C33.3907 57.715 33.3817 57.8642 33.3186 57.9937C33.2556 58.1232 33.1437 58.2224 33.0076 58.2693C32.7545 58.3565 32.4901 58.4409 32.2173 58.5168C30.4722 58.9957 28.6806 59.2852 26.8735 59.3803C32.1948 62.1112 39.8898 62.0718 48.7351 58.6715C54.1937 56.5219 59.2931 53.5535 63.8579 49.8684L19.6313 49.8712Z" fill="#039CC7"/>
<path d="M27.8126 38.4497H28.2964V43.5487H27.8126V38.4497ZM26.8845 38.4497H27.3879V43.5487H26.8845V38.4497ZM25.9564 38.4497H26.4598V43.5487H25.9592L25.9564 38.4497ZM25.0282 38.4497H25.5317V43.5487H25.0311L25.0282 38.4497ZM24.1001 38.4497H24.6036V43.5487H24.1029L24.1001 38.4497ZM23.1917 38.4497H23.6754V43.5487H23.1973V38.4497H23.1917ZM22.6826 37.9406H28.7998V44.0606H22.6854V37.9406H22.6826Z" fill="#00ACD3"/>
<path d="M34.8751 31.3903H35.3589V36.4894H34.8751V31.3903ZM33.947 31.3903H34.4504V36.4894H33.947V31.3903ZM33.0189 31.3903H33.5223V36.4894H33.0189V31.3903ZM32.0907 31.3903H32.5942V36.4894H32.0907V31.3903ZM31.1626 31.3903H31.6632V36.4894H31.1626V31.3903ZM30.2542 31.3903H30.7379V36.4894H30.2542V31.3903ZM29.7451 30.8812H35.8651V37.0012H29.7479V30.8784L29.7451 30.8812Z" fill="#00ACD3"/>
<path d="M34.8751 38.4497H35.3589V43.5487H34.8751V38.4497ZM33.947 38.4497H34.4504V43.5487H33.947V38.4497ZM33.0189 38.4497H33.5223V43.5487H33.0189V38.4497ZM32.0907 38.4497H32.5942V43.5487H32.0907V38.4497ZM31.1626 38.4497H31.6632V43.5487H31.1626V38.4497ZM30.2542 38.4497H30.7379V43.5487H30.2542V38.4497ZM29.7451 37.9406H35.8651V44.0606H29.7479L29.7451 37.9406Z" fill="#26C2EE"/>
<path d="M41.9318 38.4497H42.4155V43.5487H41.9318V38.4497ZM41.0036 38.4497H41.5071V43.5487H41.0064L41.0036 38.4497ZM40.0755 38.4497H40.5789V43.5487H40.0783V38.4497H40.0755ZM39.1474 38.4497H39.6564V43.5487H39.153V38.4497H39.1474ZM38.2193 38.4497H38.7227V43.5487H38.2193V38.4497ZM37.3108 38.4497H37.7946V43.5487H37.3108V38.4497ZM36.8018 37.9406H42.9218V44.0606H36.8074V37.9406H36.8018Z" fill="#00ACD3"/>
<path d="M41.9318 31.3903H42.4155V36.4894H41.9318V31.3903ZM41.0036 31.3903H41.5071V36.4894H41.0064L41.0036 31.3903ZM40.0755 31.3903H40.5789V36.4894H40.0783V31.3903H40.0755ZM39.1474 31.3903H39.6564V36.4894H39.153V31.3903H39.1474ZM38.2193 31.3903H38.7227V36.4894H38.2193V31.3903ZM37.3108 31.3903H37.7946V36.4894H37.3108V31.3903ZM36.8018 30.8812H42.9218V37.0012H36.8074V30.8784L36.8018 30.8812Z" fill="#26C2EE"/>
<path d="M48.9937 38.4497H49.4775V43.5487H48.9937V38.4497ZM48.0656 38.4497H48.5691V43.5487H48.0656V38.4497ZM47.1375 38.4497H47.6409V43.5487H47.1375V38.4497ZM46.2094 38.4497H46.7128V43.5487H46.2094V38.4497ZM45.2812 38.4497H45.7847V43.5487H45.2812V38.4497ZM44.3728 38.4497H44.8566V43.5487H44.3728V38.4497ZM43.875 37.9406H49.995V44.0606H43.875V37.9406Z" fill="#26C2EE"/>
<path d="M48.9938 31.3903H49.4775V36.4894H48.9938V31.3903ZM48.0656 31.3903H48.5691V36.4894H48.0656V31.3903ZM47.1375 31.3903H47.641V36.4894H47.1375V31.3903ZM46.2094 31.3903H46.7128V36.4894H46.2094V31.3903ZM45.2813 31.3903H45.7847V36.4894H45.2813V31.3903ZM44.3728 31.3903H44.8566V36.4894H44.3728V31.3903ZM43.8638 30.8812H49.9838V37.0012H43.875V30.8784L43.8638 30.8812Z" fill="#00ACD3"/>
<path d="M48.9937 24.3282H49.4775V29.4272H48.9937V24.3282ZM48.0656 24.3282H48.5691V29.4272H48.0656V24.3282ZM47.1375 24.3282H47.6409V29.4272H47.1375V24.3282ZM46.2094 24.3282H46.7128V29.4272H46.2094V24.3282ZM45.2812 24.3282H45.7847V29.4272H45.2812V24.3282ZM44.3728 24.3282H44.8566V29.4272H44.3728V24.3282ZM43.875 23.8191H49.995V29.9391H43.875V23.8191Z" fill="#26C2EE"/>
<path d="M56.0533 38.4497H56.5315V43.5487H56.0533V38.4497ZM55.1252 38.4497H55.6258V43.5487H55.1252V38.4497ZM54.1971 38.4497H54.7005V43.5487H54.1971V38.4497ZM53.269 38.4497H53.7724V43.5487H53.269V38.4497ZM52.3408 38.4497H52.8443V43.5487H52.3408V38.4497ZM51.4324 38.4497H51.9161V43.5487H51.4324V38.4497ZM50.9233 37.9406H57.0433V44.0606H50.9262L50.9233 37.9406Z" fill="#00ACD3"/>
<path d="M35.4824 53.9803C35.8162 53.9803 36.1424 54.0793 36.4199 54.2647C36.6975 54.4502 36.9137 54.7137 37.0415 55.0221C37.1692 55.3304 37.2026 55.6697 37.1375 55.9971C37.0724 56.3244 36.9117 56.6251 36.6757 56.8611C36.4397 57.0971 36.139 57.2578 35.8116 57.3229C35.4843 57.388 35.145 57.3546 34.8366 57.2269C34.5283 57.0992 34.2647 56.8829 34.0793 56.6054C33.8939 56.3279 33.7949 56.0016 33.7949 55.6678C33.7949 55.2203 33.9727 54.7911 34.2892 54.4746C34.6056 54.1581 35.0349 53.9803 35.4824 53.9803Z" fill="#D5EEF2"/>
<path d="M35.4826 54.4584C35.6326 54.4582 35.7814 54.4859 35.9213 54.54C35.8557 54.5781 35.7998 54.6308 35.7579 54.694C35.7161 54.7572 35.6894 54.8293 35.68 54.9046C35.6705 54.9798 35.6786 55.0562 35.7036 55.1278C35.7286 55.1994 35.7698 55.2643 35.824 55.3174C35.8782 55.3704 35.9439 55.4103 36.016 55.4337C36.0881 55.4572 36.1647 55.4637 36.2397 55.4527C36.3148 55.4417 36.3862 55.4135 36.4486 55.3703C36.5109 55.3271 36.5625 55.2701 36.5991 55.2037C36.6986 55.4431 36.7185 55.708 36.656 55.9595C36.5935 56.211 36.4518 56.4358 36.2519 56.6007C36.052 56.7656 35.8044 56.862 35.5456 56.8755C35.2868 56.8891 35.0304 56.8191 34.8144 56.676C34.5983 56.5328 34.434 56.3241 34.3455 56.0805C34.2571 55.8369 34.2493 55.5713 34.3232 55.3229C34.3971 55.0745 34.5488 54.8564 34.756 54.7008C34.9632 54.5451 35.215 54.4602 35.4741 54.4584" fill="#3A4E55"/>
<path d="M5.62488 50.4815H84.1499C82.4399 50.0484 78.7414 49.4634 79.3489 47.2219C76.2411 50.8191 68.743 49.7531 66.8502 47.9728C64.7436 51.03 52.4755 49.8684 51.6205 47.4862C48.9796 50.58 40.7924 50.58 38.1514 47.4862C37.3077 49.8684 25.0283 51.03 22.9218 47.9728C21.0289 49.7475 13.5336 50.8191 10.423 47.2219C11.0333 49.4719 7.32926 50.0484 5.62207 50.4815" fill="#3A4E55"/>
<path d="M39.9684 66.1443C36.5148 64.6724 33.7457 61.9486 32.2171 58.5197C30.3907 59.0041 28.5167 59.2871 26.6287 59.3634C25.8112 59.4084 24.9515 59.4318 24.0496 59.4337C23.0109 59.4337 21.9159 59.4028 20.7646 59.3409C22.9859 61.654 25.6793 63.4616 28.6615 64.6409C31.6437 65.8202 34.8449 66.3435 38.0475 66.1753C38.6925 66.1753 39.3328 66.1631 39.9684 66.1387" fill="#C0DBE1"/>
<path d="M33.7698 61.2365C33.1568 60.389 32.6363 59.4781 32.2173 58.5197C30.3909 59.0041 28.5169 59.2871 26.6289 59.3634C28.8525 60.4783 31.2851 61.1145 33.7698 61.2309" fill="#D5EEF2"/>
</svg>
