<svg width="120" height="91" viewBox="0 0 120 91" fill="none" xmlns="http://www.w3.org/2000/svg">
<path d="M45.7331 2.79998C18.3998 11.4666 6.7998 45.6 22.9331 69.8666C31.0665 82.4 44.5331 89.3333 59.9998 89.3333C75.4665 89.3333 88.9331 82.4 97.0665 69.8666C113.466 45.3333 101.6 11.3333 73.7331 2.66664C63.0665 -0.666692 56.3998 -0.666692 45.7331 2.79998ZM78.2665 7.46664C87.1998 11.7333 96.5331 22 99.4665 30.9333C102.533 40.1333 101.6 55.8666 97.4665 63.8666C81.5998 94.8 36.6665 93.8666 21.9998 62.2666C17.9998 53.8666 17.4665 39.8666 20.7998 30.2666C23.1998 23.2 31.1998 13.4666 38.2665 9.19998C49.8665 1.99998 65.4665 1.33331 78.2665 7.46664Z" fill="black"/>
<path d="M61.4667 14C54.9333 21.6 51.6 29.0666 52.5333 34.5333C52.9333 37.4666 52.8 38.6666 52.1333 37.4666C51.2 36 50.8 36.1333 50.1333 38.2666C48.9333 41.8666 49.4667 53.7333 50.8 55.3333C51.3333 56.1333 52.1333 61.8666 52.4 68L52.8 79.3333L53.0667 66.6666C53.4667 51.2 55.2 39.3333 58.8 28.2666C62.4 17.2 63.2 18.2666 60 29.7333C58.5333 34.8 57.0667 42.5333 56.5333 46.9333C55.7333 54.2666 55.8667 54.9333 58.1333 54.4C61.0667 53.8666 66.6667 38.5333 67.3333 28.9333C67.6 25.4666 68.2667 21.3333 68.6667 19.8666C69.7333 16.8 68.2667 9.33331 66.6667 9.33331C66.1333 9.33331 63.7333 11.4666 61.4667 14Z" fill="black"/>
<path d="M55.0664 64.6667C55.0664 69.7333 55.3331 71.7333 55.5997 68.9333C55.8664 66.2667 55.8664 62 55.5997 59.6C55.3331 57.3333 55.0664 59.4667 55.0664 64.6667Z" fill="black"/>
</svg>
