<svg width="373" height="335" viewBox="0 0 373 335" fill="none" xmlns="http://www.w3.org/2000/svg">
<g clip-path="url(#clip0_264_14)">
<path d="M0.493679 132.098C0.497642 130.469 1.29448 128.945 2.62931 128.012L183.633 1.50351C185.355 0.300391 187.645 0.301214 189.365 1.50558L369.386 127.52C370.712 128.449 371.507 129.961 371.519 131.58L372.963 329.964C372.984 332.739 370.739 335 367.963 335H5.01217C2.24599 335 0.00546471 332.754 0.012195 329.988L0.493679 132.098Z" fill="white"/>
<path d="M369.727 128.111C369.594 128.111 369.463 128.07 369.354 127.993L188.377 1.89348C187.827 1.51153 187.172 1.3074 186.502 1.30854C185.832 1.30969 185.178 1.51604 184.629 1.89988L4.95614 127.992C4.81402 128.092 4.63814 128.131 4.46717 128.101C4.29619 128.071 4.14413 127.974 4.04445 127.832C3.94478 127.69 3.90563 127.514 3.93564 127.343C3.96564 127.172 4.06234 127.02 4.20446 126.92L183.877 0.827658C184.647 0.290368 185.562 0.0015488 186.5 6.21164e-06C187.438 -0.00153638 188.354 0.284269 189.125 0.819026L370.102 126.919C370.216 126.998 370.302 127.113 370.347 127.244C370.392 127.376 370.394 127.519 370.352 127.652C370.31 127.785 370.227 127.901 370.115 127.984C370.002 128.066 369.867 128.111 369.727 128.111Z" fill="#3F3D56"/>
<path d="M15.2236 132.581L186.681 5.44653L359.439 141.627L195.515 238.852L106.518 218.556L15.2236 132.581Z" fill="#E6E6E6"/>
<path d="M114.031 298.903H29.3267C28.8066 298.904 28.2914 298.802 27.8107 298.603C27.33 298.405 26.8931 298.113 26.5251 297.745C26.1571 297.378 25.8652 296.941 25.666 296.46C25.4668 295.98 25.3643 295.464 25.3643 294.944C25.3643 294.424 25.4668 293.908 25.666 293.428C25.8652 292.947 26.1571 292.51 26.5251 292.142C26.8931 291.775 27.33 291.483 27.8107 291.285C28.2914 291.086 28.8066 290.984 29.3267 290.985H114.031C114.551 290.984 115.066 291.086 115.547 291.285C116.027 291.483 116.464 291.775 116.832 292.142C117.2 292.51 117.492 292.947 117.691 293.428C117.89 293.908 117.993 294.424 117.993 294.944C117.993 295.464 117.89 295.98 117.691 296.46C117.492 296.941 117.2 297.378 116.832 297.745C116.464 298.113 116.027 298.405 115.547 298.603C115.066 298.802 114.551 298.904 114.031 298.903Z" fill="#4477CE"/>
<path d="M59.7165 281.881H29.3267C28.8066 281.881 28.2914 281.78 27.8107 281.581C27.33 281.382 26.8931 281.091 26.5251 280.723C26.1571 280.355 25.8652 279.918 25.666 279.438C25.4668 278.957 25.3643 278.442 25.3643 277.921C25.3643 277.401 25.4668 276.886 25.666 276.405C25.8652 275.924 26.1571 275.488 26.5251 275.12C26.8931 274.752 27.33 274.461 27.8107 274.262C28.2914 274.063 28.8066 273.961 29.3267 273.962H59.7165C60.2367 273.961 60.7518 274.063 61.2325 274.262C61.7132 274.461 62.1501 274.752 62.5181 275.12C62.8861 275.488 63.178 275.924 63.3772 276.405C63.5764 276.886 63.6789 277.401 63.6789 277.921C63.6789 278.442 63.5764 278.957 63.3772 279.438C63.178 279.918 62.8861 280.355 62.5181 280.723C62.1501 281.091 61.7132 281.382 61.2325 281.581C60.7518 281.78 60.2367 281.881 59.7165 281.881Z" fill="#4477CE"/>
<path d="M189.091 203.393C188.447 203.393 187.809 203.268 187.213 203.025L81.4707 159.127V21.7198C81.4721 20.5048 81.9552 19.3399 82.8139 18.4807C83.6726 17.6216 84.837 17.1383 86.0514 17.1368H288.911C290.125 17.1383 291.29 17.6216 292.149 18.4807C293.007 19.3399 293.49 20.5048 293.492 21.7198V159.223L293.293 159.308L191.025 203.003C190.413 203.261 189.755 203.393 189.091 203.393Z" fill="white"/>
<path d="M189.091 203.72C188.405 203.72 187.724 203.587 187.089 203.328L81.1436 159.346V21.7198C81.145 20.4179 81.6626 19.1698 82.5827 18.2493C83.5028 17.3287 84.7502 16.8109 86.0514 16.8094H288.911C290.212 16.8109 291.46 17.3287 292.38 18.2493C293.3 19.1698 293.817 20.4179 293.819 21.7198V159.439L191.154 203.304C190.501 203.579 189.799 203.72 189.091 203.72ZM82.4523 158.471L187.588 202.117C188.569 202.515 189.667 202.509 190.643 202.099L292.51 158.575V21.7198C292.509 20.7651 292.13 19.8499 291.455 19.1748C290.78 18.4998 289.865 18.12 288.911 18.1189H86.0515C85.0973 18.12 84.1825 18.4998 83.5078 19.1748C82.833 19.8499 82.4535 20.7651 82.4523 21.7198L82.4523 158.471Z" fill="#3F3D56"/>
<path d="M368.419 126.801H368.288L293.165 158.895L190.381 202.807C189.979 202.976 189.548 203.064 189.112 203.066C188.677 203.069 188.245 202.985 187.841 202.82L81.7982 158.804L4.82929 126.854L4.71171 126.801H4.5807C3.36624 126.803 2.2019 127.286 1.34314 128.145C0.484384 129.004 0.00134754 130.169 0 131.384V330.417C0.00134927 331.632 0.484385 332.797 1.34314 333.656C2.2019 334.515 3.36624 334.999 4.5807 335H368.419C369.634 334.999 370.798 334.515 371.657 333.656C372.516 332.797 372.999 331.632 373 330.417V131.384C372.999 130.169 372.516 129.004 371.657 128.145C370.798 127.286 369.634 126.803 368.419 126.801ZM371.691 330.417C371.691 331.285 371.346 332.118 370.733 332.731C370.119 333.345 369.287 333.69 368.419 333.691H4.5807C3.71304 333.69 2.88102 333.345 2.26748 332.731C1.65395 332.118 1.30912 331.285 1.30877 330.417V131.384C1.30996 130.538 1.63816 129.725 2.22477 129.114C2.81137 128.504 3.61097 128.145 4.45641 128.111L81.7982 160.218L187.338 204.031C188.48 204.496 189.76 204.489 190.898 204.012L293.165 160.316L368.55 128.111C369.394 128.147 370.192 128.508 370.777 129.118C371.362 129.727 371.689 130.539 371.691 131.384V330.417Z" fill="#3F3D56"/>
<path d="M188.035 164.429C184.131 164.436 180.331 163.173 177.207 160.831L177.014 160.685L136.238 129.451C134.35 128.003 132.765 126.197 131.574 124.137C130.383 122.076 129.609 119.802 129.297 117.442C128.985 115.082 129.141 112.684 129.755 110.385C130.369 108.085 131.429 105.929 132.876 104.04C134.323 102.151 136.128 100.565 138.187 99.3735C140.247 98.182 142.521 97.4079 144.879 97.0956C147.237 96.7832 149.634 96.9387 151.933 97.5531C154.231 98.1675 156.386 99.2288 158.274 100.676L184.685 120.938L247.099 39.5008C248.547 37.6119 250.352 36.0268 252.412 34.836C254.472 33.6451 256.746 32.8719 259.104 32.5604C261.463 32.2489 263.86 32.4053 266.158 33.0205C268.456 33.6358 270.61 34.698 272.498 36.1463L272.11 36.6735L272.508 36.154C276.316 39.0822 278.808 43.4022 279.437 48.1662C280.065 52.9302 278.779 57.7491 275.861 61.5657L202.447 157.356C200.749 159.563 198.566 161.349 196.066 162.576C193.567 163.803 190.819 164.437 188.035 164.429Z" fill="#4477CE"/>
</g>
<defs>
<clipPath id="clip0_264_14">
<rect width="373" height="335" fill="white"/>
</clipPath>
</defs>
</svg>
