<svg width="32" height="32" viewBox="0 0 32 32" fill="none" xmlns="http://www.w3.org/2000/svg">
<rect width="32" height="32" rx="3" fill="#5480CB"/>
<path d="M14.5922 3.08352C8.51719 3.88352 3.74219 8.74602 3.06094 14.8335C2.97969 15.5648 2.97969 17.1273 3.06094 17.8023C3.25469 19.396 3.69219 20.846 4.44219 22.3523C5.12344 23.721 5.12969 23.646 4.22969 25.5585C3.86094 26.3398 3.52969 27.1148 3.49844 27.2898C3.31719 28.1148 3.79219 29.0398 4.59844 29.4335L4.90469 29.5835L10.9672 29.6023C15.0922 29.6148 17.2484 29.6023 17.7172 29.5523C22.8359 29.0335 27.2984 25.4585 28.9359 20.5648C30.0547 17.2273 29.8172 13.596 28.2859 10.4585C26.2797 6.36477 22.2922 3.54602 17.7984 3.05852C16.9984 2.97102 15.3734 2.98352 14.5922 3.08352ZM11.6547 14.7023C11.7672 14.7523 11.9797 14.896 12.1234 15.0335C12.8797 15.7085 12.8797 16.896 12.1234 17.571C11.7672 17.896 11.4859 18.0085 10.9984 18.0148C9.80469 18.0335 8.95469 16.8648 9.34219 15.7335C9.51719 15.221 10.0422 14.746 10.5797 14.6085C10.8359 14.546 11.3859 14.5898 11.6547 14.7023ZM16.6797 14.621C17.5922 14.8148 18.1859 15.7273 17.9984 16.6398C17.6922 18.1335 15.7172 18.5273 14.8797 17.2585C14.2234 16.271 14.7234 14.946 15.8609 14.6398C16.2359 14.5398 16.2984 14.5398 16.6797 14.621ZM22.4359 14.771C23.7047 15.4148 23.6609 17.2898 22.3609 17.871C21.9672 18.046 21.3422 18.0648 20.9922 17.9148C20.3609 17.6398 19.9359 16.9898 19.9359 16.3023C19.9359 15.6835 20.1797 15.2523 20.7672 14.8023C21.1297 14.5273 21.9234 14.5085 22.4359 14.771Z" fill="white"/>
</svg>
