<svg width="468" height="363" viewBox="0 0 468 363" fill="none" xmlns="http://www.w3.org/2000/svg">
<g clip-path="url(#clip0_17_458)">
<path d="M457.656 212.28C508.615 268.565 360.893 349.679 241.531 349.679C122.168 349.679 39.5872 286.83 25.4049 212.28C-8.98228 31.5223 318.392 -83.3664 241.531 74.8811C129.496 305.545 417.525 167.955 457.656 212.28Z" fill="#E6E6E6"/>
<path d="M434.792 225.601C485.751 281.886 338.029 363 218.666 363C99.3034 363 16.7229 300.151 2.54065 225.601C-31.8465 44.8431 295.528 -70.0456 218.666 88.2019C106.632 318.866 394.661 181.276 434.792 225.601Z" fill="#3F3D56"/>
<path d="M71.2578 93.6386C35.5 92.0661 7.77506 84.3626 8.13929 76.1006C8.35766 71.1472 18.4775 67.1641 35.9037 65.1729C35.9661 65.1654 36.0293 65.1702 36.0898 65.1872C36.1503 65.2042 36.2068 65.2329 36.2561 65.2718C36.3055 65.3106 36.3466 65.3589 36.3772 65.4137C36.4077 65.4685 36.4271 65.5288 36.4343 65.5911C36.4414 65.6535 36.4361 65.7166 36.4188 65.7769C36.4014 65.8372 36.3722 65.8935 36.333 65.9425C36.2937 65.9914 36.2451 66.0322 36.19 66.0624C36.135 66.0925 36.0744 66.1115 36.012 66.1182C19.5964 67.9941 9.28094 71.8351 9.09104 76.1424C8.76166 83.6137 37.2497 91.1907 71.2997 92.688C105.35 94.1854 134.394 89.1385 134.724 81.6671C134.914 77.3418 124.912 72.5968 108.621 69.2843C108.56 69.2719 108.501 69.2476 108.449 69.2127C108.397 69.1778 108.353 69.133 108.318 69.0809C108.283 69.0287 108.259 68.9702 108.247 68.9088C108.235 68.8474 108.236 68.7842 108.248 68.7228C108.261 68.6615 108.285 68.6032 108.32 68.5514C108.355 68.4995 108.4 68.4551 108.453 68.4206C108.505 68.3861 108.563 68.3623 108.625 68.3505C108.687 68.3387 108.75 68.3392 108.811 68.3518C126.103 71.8679 135.895 76.7364 135.675 81.709C135.311 89.971 107.016 95.2111 71.2578 93.6386Z" fill="#4477CE"/>
<path d="M39.4995 95.0223C42.4909 100.698 46.9221 105.489 52.3498 108.917C57.7775 112.345 64.0113 114.289 70.4276 114.555C76.8439 114.821 83.2176 113.399 88.9111 110.433C94.6045 107.466 99.4181 103.058 102.87 97.6493C81.7143 97.934 60.5589 97.0571 39.4995 95.0223Z" fill="#4477CE"/>
<path d="M106.826 87.642C108.626 82.2488 109.145 76.5112 108.341 70.8833C107.537 65.2553 105.432 59.8914 102.194 55.2162C98.9557 50.5409 94.6723 46.6826 89.6827 43.9467C84.6932 41.2107 79.1345 39.6721 73.4467 39.4528C67.7588 39.2334 62.0979 40.3392 56.912 42.6827C51.726 45.0263 47.1574 48.5431 43.5677 52.955C39.978 57.3669 37.4657 62.5527 36.2297 68.102C34.9936 73.6513 35.0678 79.4118 36.4463 84.9275C59.6898 88.8684 83.347 89.7808 106.826 87.642Z" fill="#4477CE"/>
<path d="M80.4223 63.0841C82.79 63.0841 84.7094 61.1671 84.7094 58.8024C84.7094 56.4377 82.79 54.5207 80.4223 54.5207C78.0546 54.5207 76.1353 56.4377 76.1353 58.8024C76.1353 61.1671 78.0546 63.0841 80.4223 63.0841Z" fill="white"/>
<path d="M58.3585 79.7307C62.3047 79.7307 65.5036 76.5357 65.5036 72.5945C65.5036 68.6533 62.3047 65.4583 58.3585 65.4583C54.4124 65.4583 51.2134 68.6533 51.2134 72.5945C51.2134 76.5357 54.4124 79.7307 58.3585 79.7307Z" fill="white"/>
<path d="M166.198 72.7404C168.829 72.7404 170.961 70.6104 170.961 67.983C170.961 65.3556 168.829 63.2257 166.198 63.2257C163.567 63.2257 161.435 65.3556 161.435 67.983C161.435 70.6104 163.567 72.7404 166.198 72.7404Z" fill="#4477CE"/>
<path d="M58.5446 218.318C60.1231 218.318 61.4027 217.04 61.4027 215.464C61.4027 213.887 60.1231 212.609 58.5446 212.609C56.9661 212.609 55.6865 213.887 55.6865 215.464C55.6865 217.04 56.9661 218.318 58.5446 218.318Z" fill="#E6E6E6"/>
<path d="M258.609 316.322C260.187 316.322 261.467 315.044 261.467 313.467C261.467 311.891 260.187 310.613 258.609 310.613C257.03 310.613 255.75 311.891 255.75 313.467C255.75 315.044 257.03 316.322 258.609 316.322Z" fill="#E6E6E6"/>
<path d="M72.3587 163.132C73.148 163.132 73.7878 162.493 73.7878 161.705C73.7878 160.917 73.148 160.277 72.3587 160.277C71.5695 160.277 70.9297 160.917 70.9297 161.705C70.9297 162.493 71.5695 163.132 72.3587 163.132Z" fill="#E6E6E6"/>
<path d="M190.492 269.699C191.281 269.699 191.921 269.06 191.921 268.272C191.921 267.483 191.281 266.844 190.492 266.844C189.702 266.844 189.062 267.483 189.062 268.272C189.062 269.06 189.702 269.699 190.492 269.699Z" fill="#E6E6E6"/>
<path d="M405.322 255.902C406.111 255.902 406.751 255.263 406.751 254.475C406.751 253.687 406.111 253.048 405.322 253.048C404.532 253.048 403.893 253.687 403.893 254.475C403.893 255.263 404.532 255.902 405.322 255.902Z" fill="#E6E6E6"/>
<path d="M338.158 298.244C338.947 298.244 339.587 297.605 339.587 296.816C339.587 296.028 338.947 295.389 338.158 295.389C337.368 295.389 336.729 296.028 336.729 296.816C336.729 297.605 337.368 298.244 338.158 298.244Z" fill="#E6E6E6"/>
<path d="M268.135 246.863C268.924 246.863 269.564 246.224 269.564 245.436C269.564 244.648 268.924 244.009 268.135 244.009C267.346 244.009 266.706 244.648 266.706 245.436C266.706 246.224 267.346 246.863 268.135 246.863Z" fill="#E6E6E6"/>
<path d="M177.63 106.043C178.419 106.043 179.059 105.404 179.059 104.615C179.059 103.827 178.419 103.188 177.63 103.188C176.841 103.188 176.201 103.827 176.201 104.615C176.201 105.404 176.841 106.043 177.63 106.043Z" fill="#E6E6E6"/>
<path d="M189.062 35.6324C189.852 35.6324 190.491 34.9934 190.491 34.2052C190.491 33.4169 189.852 32.7779 189.062 32.7779C188.273 32.7779 187.633 33.4169 187.633 34.2052C187.633 34.9934 188.273 35.6324 189.062 35.6324Z" fill="#E6E6E6"/>
<path d="M182.393 332.021C183.183 332.021 183.822 331.382 183.822 330.594C183.822 329.806 183.183 329.167 182.393 329.167C181.604 329.167 180.964 329.806 180.964 330.594C180.964 331.382 181.604 332.021 182.393 332.021Z" fill="#E6E6E6"/>
<path d="M111.895 302.05C112.684 302.05 113.324 301.41 113.324 300.622C113.324 299.834 112.684 299.195 111.895 299.195C111.106 299.195 110.466 299.834 110.466 300.622C110.466 301.41 111.106 302.05 111.895 302.05Z" fill="#E6E6E6"/>
<path d="M335.3 250.669C336.089 250.669 336.729 250.03 336.729 249.242C336.729 248.454 336.089 247.815 335.3 247.815C334.51 247.815 333.871 248.454 333.871 249.242C333.871 250.03 334.51 250.669 335.3 250.669Z" fill="#E6E6E6"/>
<path d="M70.6767 111.229C73.0444 111.229 74.9638 109.312 74.9638 106.947C74.9638 104.582 73.0444 102.665 70.6767 102.665C68.309 102.665 66.3896 104.582 66.3896 106.947C66.3896 109.312 68.309 111.229 70.6767 111.229Z" fill="white"/>
<path d="M167.627 172.647C167.627 185.435 147.831 215.234 142.045 223.669C141.871 223.924 141.637 224.133 141.363 224.277C141.09 224.421 140.785 224.496 140.476 224.496C140.166 224.496 139.862 224.421 139.588 224.277C139.315 224.133 139.081 223.924 138.906 223.669C133.121 215.234 113.324 185.435 113.324 172.647C113.324 169.086 114.027 165.56 115.391 162.27C116.755 158.979 118.755 155.99 121.277 153.472C123.798 150.954 126.791 148.956 130.085 147.594C133.379 146.231 136.91 145.529 140.476 145.529C144.041 145.529 147.572 146.231 150.866 147.594C154.16 148.956 157.153 150.954 159.675 153.472C162.196 155.99 164.196 158.979 165.56 162.27C166.925 165.56 167.627 169.086 167.627 172.647Z" fill="white"/>
<path d="M140.476 184.541C148.105 184.541 154.289 178.364 154.289 170.744C154.289 163.124 148.105 156.947 140.476 156.947C132.846 156.947 126.662 163.124 126.662 170.744C126.662 178.364 132.846 184.541 140.476 184.541Z" fill="#4477CE"/>
<path d="M140.237 239.251C149.05 239.251 156.195 237.867 156.195 236.159C156.195 234.451 149.05 233.067 140.237 233.067C131.424 233.067 124.28 234.451 124.28 236.159C124.28 237.867 131.424 239.251 140.237 239.251Z" fill="white"/>
<path d="M225.329 211.177C228.026 209.45 224.746 199.532 218.002 189.025C211.258 178.518 203.604 171.401 200.907 173.128C198.209 174.855 201.49 184.773 208.234 195.28C214.978 205.786 222.631 212.904 225.329 211.177Z" fill="#3F3D56"/>
</g>
<defs>
<clipPath id="clip0_17_458">
<rect width="468" height="363" fill="white"/>
</clipPath>
</defs>
</svg>
