<svg width="209" height="197" viewBox="0 0 209 197" fill="none" xmlns="http://www.w3.org/2000/svg">
<g clip-path="url(#clip0_53_223)">
<path d="M151.735 111.79V166.209L160.829 181.044L161.521 182.173H197.402L198.127 111.79H151.735Z" fill="#E6E6E6"/>
<path opacity="0.1" d="M151.735 111.79V166.209L160.829 181.044L161.387 111.79H151.735Z" fill="black"/>
<path d="M65.1126 110.338V164.758L56.019 179.593L55.3269 180.721H19.4457L18.7207 110.338H65.1126Z" fill="#E6E6E6"/>
<path opacity="0.1" d="M65.1127 110.338V164.758L56.019 179.593L55.4609 110.338H65.1127Z" fill="black"/>
<path d="M209 109.25V112.515H14.009V107.799L32.1308 98.3658H193.053L209 109.25Z" fill="#E6E6E6"/>
<path opacity="0.1" d="M209 109.25V112.515H14.009V107.799L209 109.25Z" fill="black"/>
<path d="M41.9168 125.576H33.2181L29.5938 123.036H45.9035L41.9168 125.576Z" fill="#3F3D56"/>
<path d="M41.9168 136.097H33.2181L29.5938 133.557H45.9035L41.9168 136.097Z" fill="#3F3D56"/>
<path d="M41.9168 150.972H33.2181L29.5938 148.432H45.9035L41.9168 150.972Z" fill="#3F3D56"/>
<path d="M41.9168 165.847H33.2181L29.5938 163.307H45.9035L41.9168 165.847Z" fill="#3F3D56"/>
<path d="M174.931 127.027H183.629L187.254 124.487H170.944L174.931 127.027Z" fill="#3F3D56"/>
<path d="M174.931 137.548H183.629L187.254 135.009H170.944L174.931 137.548Z" fill="#3F3D56"/>
<path d="M174.931 152.423H183.629L187.254 149.884H170.944L174.931 152.423Z" fill="#3F3D56"/>
<path d="M174.931 167.298H183.629L187.254 164.758H170.944L174.931 167.298Z" fill="#3F3D56"/>
<path d="M180.854 35.4345H107.625C107.261 35.4345 106.901 35.5061 106.565 35.6454C106.229 35.7847 105.924 35.9889 105.667 36.2464C105.41 36.5038 105.206 36.8094 105.066 37.1458C104.927 37.4822 104.856 37.8427 104.856 38.2067V87.5853C104.856 87.9494 104.927 88.3099 105.066 88.6462C105.206 88.9826 105.41 89.2882 105.667 89.5457C105.924 89.8031 106.229 90.0073 106.565 90.1466C106.901 90.2859 107.261 90.3576 107.625 90.3575H135.424L134.382 97.0135C134.382 97.0135 128.43 100.178 132.615 100.272C136.8 100.365 156.515 100.272 156.515 100.272C156.515 100.272 160.328 100.272 154.283 96.9204L153.304 90.3575H180.854C181.218 90.3576 181.578 90.2859 181.914 90.1466C182.25 90.0073 182.556 89.8031 182.813 89.5457C183.07 89.2882 183.274 88.9826 183.413 88.6462C183.552 88.3099 183.624 87.9494 183.624 87.5853V38.2067C183.624 37.8427 183.552 37.4822 183.413 37.1458C183.274 36.8094 183.07 36.5038 182.813 36.2464C182.556 35.9889 182.25 35.7847 181.914 35.6454C181.578 35.5061 181.218 35.4345 180.854 35.4345Z" fill="#3F3D56"/>
<path d="M180.973 38.3669H107.506V79.5126H180.973V38.3669Z" fill="#F2F2F2"/>
<path d="M144.24 37.529C144.497 37.529 144.705 37.3207 144.705 37.0636C144.705 36.8065 144.497 36.5981 144.24 36.5981C143.983 36.5981 143.775 36.8065 143.775 37.0636C143.775 37.3207 143.983 37.529 144.24 37.529Z" fill="#F2F2F2"/>
<path d="M144.24 88.3561C145.216 88.3561 146.007 87.5643 146.007 86.5874C146.007 85.6106 145.216 84.8187 144.24 84.8187C143.264 84.8187 142.473 85.6106 142.473 86.5874C142.473 87.5643 143.264 88.3561 144.24 88.3561Z" fill="#F2F2F2"/>
<path d="M141.486 105.298V106.229H91.4543V105.485L91.5231 105.298L92.7562 101.947H140.464L141.486 105.298Z" fill="#3F3D56"/>
<path d="M160.74 104.387C160.649 104.777 160.305 105.189 159.528 105.578C156.738 106.974 151.065 105.205 151.065 105.205C151.065 105.205 146.694 104.461 146.694 102.506C146.817 102.422 146.945 102.345 147.077 102.278C148.25 101.656 152.139 100.124 159.035 102.343C159.543 102.502 159.997 102.8 160.346 103.202C160.501 103.355 160.617 103.541 160.686 103.747C160.754 103.953 160.773 104.172 160.74 104.387Z" fill="#3F3D56"/>
<path opacity="0.1" d="M160.74 104.387C157.326 105.697 154.282 105.795 151.158 103.623C149.977 102.749 148.546 102.277 147.077 102.278C148.25 101.656 152.139 100.124 159.035 102.343C159.543 102.502 159.997 102.8 160.346 103.202C160.501 103.355 160.617 103.541 160.686 103.747C160.754 103.953 160.773 104.172 160.74 104.387Z" fill="black"/>
<path d="M156.459 103.623C157.127 103.623 157.668 103.456 157.668 103.25C157.668 103.045 157.127 102.878 156.459 102.878C155.791 102.878 155.25 103.045 155.25 103.25C155.25 103.456 155.791 103.623 156.459 103.623Z" fill="#F2F2F2"/>
<path opacity="0.1" d="M141.486 105.298V106.23H91.4543V105.485L91.5231 105.298H141.486Z" fill="black"/>
<path d="M27.8186 1.75638e-05C27.3108 -0.0417144 26.8024 0.0719833 26.3606 0.326045C25.9269 0.623391 25.6535 1.14431 25.3744 1.62906C24.3074 3.50457 22.863 5.13783 21.1326 6.42538C19.8721 7.34966 18.2697 8.50212 18.4854 10.2062C18.5991 10.769 18.8068 11.3086 19.0997 11.8023C20.2625 14.1518 23.4354 15.9675 23.1233 18.6485C24.2785 16.7126 22.7334 15.7553 23.8886 13.8194C24.4387 12.8975 25.3944 11.8568 26.225 12.4358C26.5031 12.6297 26.6858 12.9774 26.9753 13.1475C27.6663 13.5533 28.4014 12.7774 29.013 12.2278C31.1221 10.3326 34.1215 10.8291 36.746 11.4196C37.9851 11.6984 39.346 12.0641 40.0785 13.2495C41.0415 14.8081 39.1635 16.4914 38.689 18.2535C38.6503 18.4036 38.6484 18.5609 38.6837 18.7119C38.7189 18.863 38.7901 19.0032 38.8913 19.1206C38.9925 19.2381 39.1206 19.3292 39.2646 19.3863C39.4086 19.4434 39.5644 19.4647 39.7184 19.4484C40.5059 19.3707 41.4388 19.3069 41.4854 18.961C42.4762 18.9963 43.6903 18.884 44.1148 17.8513C44.2445 17.4427 44.3131 17.0171 44.3183 16.5883C44.4741 14.8536 45.2097 13.2709 45.6969 11.6198C46.1842 9.96875 46.3961 8.03377 45.5738 6.5699C45.2803 6.08284 44.9174 5.64129 44.4964 5.25921C39.83 0.738783 33.6947 -0.00669244 27.8186 1.75638e-05Z" fill="#2F2E41"/>
<path d="M24.1382 22.0348C24.1382 22.0348 25.153 30.5005 21.4319 31.1778C17.7107 31.8551 24.8147 43.3684 24.8147 43.3684L41.7292 45.4002L37.6698 31.8551C37.6698 31.8551 34.9634 30.8392 36.6549 24.0666C38.3463 17.294 24.1382 22.0348 24.1382 22.0348Z" fill="#A0616A"/>
<path d="M13.8203 167.476L15.1736 186.101H22.2774L20.2479 167.476H13.8203Z" fill="#A0616A"/>
<path d="M65.917 132.258L66.9317 147.835L74.7127 144.449L71.6678 131.581L65.917 132.258Z" fill="#A0616A"/>
<path d="M8.74597 96.3638C8.74597 96.3638 9.08425 116.004 11.114 122.438C13.1438 128.872 12.8055 129.211 12.4672 130.227C12.1289 131.243 11.7906 130.565 11.7906 132.258C11.7906 133.952 11.114 160.703 11.7906 163.074C12.4672 165.444 9.76085 169.508 11.7906 169.846C13.8203 170.185 23.2924 169.846 23.6307 167.814C23.969 165.783 20.9244 165.105 22.2776 163.751C23.6307 162.396 25.6605 134.629 25.6605 134.629L30.3965 115.327L39.192 105.168H57.798L63.5489 127.518C63.5489 127.518 61.1808 133.952 62.8723 133.952C64.5638 133.952 74.7124 135.983 74.7124 128.534C74.7124 121.084 71.3295 99.0729 70.653 98.3956C69.9764 97.7183 70.9913 95.3479 69.9764 94.3321C68.9615 93.3162 57.1214 86.205 52.7236 84.8504C48.3259 83.4959 42.1565 81.8838 42.1565 81.8838L8.74597 96.3638Z" fill="#2F2E41"/>
<path d="M74.7124 141.74C74.7124 141.74 69.6381 140.047 67.27 145.126C64.902 150.206 65.9169 151.56 65.9169 151.56C65.9169 151.56 73.6975 154.269 75.0507 152.915C75.6394 152.326 77.5089 152.121 79.4332 152.078C82.3639 152.012 83.1437 147.861 80.3758 146.895C80.2932 146.866 80.2096 146.841 80.125 146.82C77.4187 146.142 74.7124 141.74 74.7124 141.74Z" fill="#2F2E41"/>
<path d="M31.7496 27.6222C37.3546 27.6222 41.8983 23.0739 41.8983 17.4633C41.8983 11.8527 37.3546 7.30444 31.7496 7.30444C26.1447 7.30444 21.601 11.8527 21.601 17.4633C21.601 23.0739 26.1447 27.6222 31.7496 27.6222Z" fill="#A0616A"/>
<path d="M18.5564 35.4106C18.5564 35.4106 35.1326 38.7969 39.192 33.3789C43.2515 27.9608 44.943 48.6172 44.943 48.6172L46.9727 70.2894L43.9281 82.1414C43.9281 82.1414 28.0285 95.0093 22.9541 96.0252C17.8798 97.0411 10.0991 97.7184 10.0991 97.7184C10.0991 97.7184 12.4672 60.1306 12.4672 59.4533C12.4672 58.776 18.5564 35.4106 18.5564 35.4106Z" fill="#4477CE"/>
<path d="M23.5976 29.0598C23.5976 29.0598 19.9096 26.9449 18.8947 28.9767C17.8798 31.0085 8.40773 36.0879 7.39287 36.0879C6.378 36.0879 9.42261 64.1941 8.06945 67.5804C6.71629 70.9667 0.288787 95.6866 4.00997 97.7183C7.73116 99.7501 5.02484 95.6866 8.74603 100.766C12.4672 105.845 30.7348 105.845 31.7497 103.814C32.7646 101.782 23.6308 86.5436 25.3222 72.3212C27.0137 58.0988 29.72 38.4583 27.352 35.7493C24.9839 33.0402 23.5976 29.0598 23.5976 29.0598Z" fill="#2F2E41"/>
<path d="M35.8092 31.3471L36.2804 29.7239C36.2804 29.7239 50.3557 34.3948 51.0322 37.4424C51.7088 40.4901 51.3705 61.8237 49.0025 63.5168C46.6345 65.21 43.2516 67.919 45.6196 71.9826C47.9876 76.0461 50.6939 80.4483 52.7237 80.7869C54.7534 81.1255 58.4746 83.4959 57.4597 85.8663C56.4449 88.2367 44.2664 83.8346 44.2664 83.8346C44.2664 83.8346 36.1475 77.7392 36.4858 68.2576C36.8241 58.776 35.8092 31.3471 35.8092 31.3471Z" fill="#2F2E41"/>
<path d="M47.6493 71.3053L39.5303 86.5436C39.5303 86.5436 27.6902 98.7342 34.456 100.089C41.2218 101.443 44.943 88.914 44.943 88.914L53.7385 76.3847L47.6493 71.3053Z" fill="#A0616A"/>
<path d="M28.313 2.65804C27.9039 2.6277 27.4942 2.70725 27.1261 2.88847C26.7933 3.13177 26.5191 3.44642 26.3233 3.80943C25.421 5.16807 24.2448 6.32279 22.8703 7.19944C21.8442 7.85272 20.5398 8.66726 20.7153 9.87173C20.8106 10.2756 20.9802 10.6581 21.2155 10.9998C22.1653 12.6772 22.5434 14.6187 22.2926 16.5304L25.1138 12.4255C25.5616 11.7739 26.3396 11.0384 27.0158 11.4476C27.2422 11.5846 27.3908 11.8303 27.6266 11.9506C28.189 12.2374 28.7874 11.689 29.2853 11.3006C31.0022 9.96102 33.4438 10.3119 35.5803 10.7293C36.5889 10.9263 37.6968 11.1849 38.293 12.0227C39.2839 13.415 38.2492 15.4269 38.8275 17.0353C38.9894 16.9219 39.1269 16.7771 39.2318 16.6094C39.3367 16.4418 39.407 16.2548 39.4384 16.0595C40.2449 16.0845 41.2332 16.0051 41.5788 15.2752C41.6839 14.9891 41.7399 14.6873 41.7445 14.3825C41.8713 13.1564 42.47 12.0378 42.8667 10.8708C43.2634 9.70387 43.4358 8.33624 42.7665 7.30158C42.5216 6.95101 42.226 6.6388 41.8895 6.37519C38.0908 3.18019 33.0963 2.6533 28.313 2.65804Z" fill="#2F2E41"/>
<path d="M47.6493 36.0879L50.8012 36.9253C50.8012 36.9253 58.1363 55.7284 56.4448 68.5963C54.7534 81.4642 53.7385 78.7551 53.7385 78.7551C53.7385 78.7551 51.0322 72.6598 44.943 74.0143L47.6493 36.0879Z" fill="#2F2E41"/>
<path d="M14.2891 183.639C13.4733 184.749 13.6368 186.335 12.9142 187.508C12.2879 188.524 11.1074 189.057 10.3239 189.958C10.0739 190.257 9.85104 190.578 9.65794 190.917C8.93116 192.135 8.34041 193.697 9.0562 194.922C9.63201 195.908 10.8423 196.293 11.9523 196.555C13.3553 196.887 14.813 197.153 16.2322 196.899C17.6514 196.646 19.0383 195.776 19.5443 194.424C19.6438 194.085 19.762 193.751 19.8985 193.424C20.6677 191.908 23.0804 191.892 23.8676 190.385C24.4186 189.331 23.9121 188.057 23.4059 186.98L21.8598 183.692C21.3467 182.601 19.2668 183.228 18.1824 182.967C16.7682 182.626 15.3064 182.25 14.2891 183.639Z" fill="#2F2E41"/>
<path d="M2.99512 78.0778L17.2033 100.089C17.2033 100.089 25.9988 111.263 28.7051 106.184C31.4114 101.105 19.233 92.6389 19.233 92.6389L10.0992 75.7075L2.99512 78.0778Z" fill="#A0616A"/>
<path d="M10.0992 36.7651L7.39284 36.0879C7.39284 36.0879 1.9802 37.781 0.627047 44.8922C-0.72611 52.0034 0.288756 80.4483 1.9802 80.7869C3.67165 81.1255 10.3342 75.8341 11.4007 76.956C12.4672 78.0779 9.08428 72.3212 10.0991 69.2735C11.114 66.2259 10.0992 36.7651 10.0992 36.7651Z" fill="#2F2E41"/>
<path d="M137.286 51.8805H128.543V53.9875H137.286V51.8805Z" fill="#4477CE"/>
<path d="M167.564 51.8805H164.488V53.9875H167.564V51.8805Z" fill="#4477CE"/>
<path d="M173.717 51.8805H170.641V53.9875H173.717V51.8805Z" fill="#4477CE"/>
<path d="M161.25 51.8805H140.363V53.9875H161.25V51.8805Z" fill="#4477CE"/>
<path d="M126.276 65.4951H117.532V67.6021H126.276V65.4951Z" fill="#4477CE"/>
<path d="M156.554 65.4951H153.478V67.6021H156.554V65.4951Z" fill="#4477CE"/>
<path d="M162.707 65.4951H159.631V67.6021H162.707V65.4951Z" fill="#4477CE"/>
<path d="M150.239 65.4951H129.352V67.6021H150.239V65.4951Z" fill="#4477CE"/>
<path d="M162.383 56.5807H153.64V58.6878H162.383V56.5807Z" fill="#4477CE"/>
<path d="M174.203 56.5807H165.46V58.6878H174.203V56.5807Z" fill="#4477CE"/>
<path d="M120.609 56.5807H117.532V58.6878H120.609V56.5807Z" fill="#4477CE"/>
<path d="M126.762 56.5807H123.685V58.6878H126.762V56.5807Z" fill="#4477CE"/>
<path d="M150.725 56.5807H129.838V58.6878H150.725V56.5807Z" fill="#4477CE"/>
<path d="M144.249 61.119H135.505V63.226H144.249V61.119Z" fill="#4477CE"/>
<path d="M132.429 61.119H123.685V63.226H132.429V61.119Z" fill="#4477CE"/>
<path d="M120.609 61.119H117.532V63.226H120.609V61.119Z" fill="#4477CE"/>
<path d="M174.203 61.119H171.127V63.226H174.203V61.119Z" fill="#4477CE"/>
<path d="M168.05 61.119H147.163V63.226H168.05V61.119Z" fill="#4477CE"/>
</g>
<defs>
<clipPath id="clip0_53_223">
<rect width="209" height="197" fill="white"/>
</clipPath>
</defs>
</svg>
